<svg width="22" height="22" viewBox="0 0 22 22" fill="none" xmlns="http://www.w3.org/2000/svg">
<path d="M20.4931 7.47499C21.2996 9.64123 21.3406 12.0182 20.6093 14.211C19.878 16.4038 18.4184 18.2803 16.4731 19.5288C14.5278 20.7772 12.2138 21.3225 9.91571 21.074C7.61761 20.8254 5.47373 19.798 3.84031 18.1625C2.00548 16.3337 0.941428 13.8712 0.867116 11.2817C0.792804 8.69217 1.71389 6.17268 3.44082 4.24168C5.16776 2.31068 7.56916 1.11507 10.1509 0.900895C12.7326 0.686719 15.2982 1.47027 17.3197 3.0903L19.2041 1.20499C19.3087 1.10034 19.4329 1.01733 19.5697 0.960697C19.7064 0.904062 19.8529 0.874913 20.0009 0.874913C20.1489 0.874913 20.2955 0.904062 20.4322 0.960697C20.5689 1.01733 20.6932 1.10034 20.7978 1.20499C20.9025 1.30964 20.9855 1.43387 21.0421 1.5706C21.0987 1.70733 21.1279 1.85387 21.1279 2.00186C21.1279 2.14986 21.0987 2.2964 21.0421 2.43313C20.9855 2.56986 20.9025 2.69409 20.7978 2.79874L11.7978 11.7987C11.6932 11.9034 11.5689 11.9864 11.4322 12.043C11.2955 12.0997 11.1489 12.1288 11.0009 12.1288C10.8529 12.1288 10.7064 12.0997 10.5697 12.043C10.4329 11.9864 10.3087 11.9034 10.2041 11.7987C10.0994 11.6941 10.0164 11.5699 9.95977 11.4331C9.90314 11.2964 9.87399 11.1499 9.87399 11.0019C9.87399 10.8539 9.90314 10.7073 9.95977 10.5706C10.0164 10.4339 10.0994 10.3096 10.2041 10.205L12.4541 7.95499C11.8199 7.65201 11.107 7.55457 10.4148 7.67624C9.72262 7.79792 9.08568 8.13264 8.59287 8.63372C8.10007 9.13479 7.77598 9.77721 7.66583 10.4713C7.55568 11.1654 7.66497 11.8766 7.97845 12.5057C8.29193 13.1347 8.79396 13.6501 9.41448 13.9801C10.035 14.3101 10.7431 14.4381 11.4398 14.3464C12.1366 14.2546 12.7874 13.9476 13.3013 13.4682C13.8152 12.9888 14.1666 12.3609 14.3066 11.6722C14.3655 11.3797 14.5382 11.1225 14.7867 10.9573C15.0352 10.7922 15.3392 10.7325 15.6317 10.7914C15.9242 10.8503 16.1814 11.023 16.3466 11.2716C16.5117 11.5201 16.5714 11.824 16.5125 12.1166C16.2729 13.297 15.6606 14.3694 14.7659 15.1758C13.8711 15.9823 12.7411 16.4802 11.5422 16.5963C10.3432 16.7124 9.13868 16.4406 8.1058 15.8208C7.07292 15.2011 6.26627 14.2661 5.80456 13.1536C5.34286 12.041 5.25048 10.8096 5.54103 9.64066C5.83159 8.47169 6.48972 7.42685 7.41857 6.65993C8.34742 5.89301 9.49793 5.44451 10.7008 5.38045C11.9036 5.31638 13.0953 5.64013 14.1003 6.30405L15.7156 4.69436C14.1983 3.56116 12.3234 3.01271 10.4345 3.14952C8.54569 3.28633 6.7694 4.09923 5.43119 5.43926C4.09298 6.77928 3.28248 8.55668 3.14824 10.4457C3.01399 12.3347 3.56499 14.2089 4.70024 15.7247C5.8355 17.2405 7.47898 18.2964 9.3295 18.699C11.18 19.1015 13.1136 18.8237 14.776 17.9165C16.4383 17.0093 17.7181 15.5334 18.3807 13.7593C19.0433 11.9852 19.0444 10.0317 18.3837 8.25686C18.3312 8.1181 18.3065 7.97031 18.3113 7.822C18.3161 7.67368 18.3502 7.52778 18.4116 7.39268C18.473 7.25759 18.5605 7.13598 18.6691 7.03485C18.7777 6.93373 18.9052 6.85509 19.0443 6.80346C19.1834 6.75183 19.3314 6.72823 19.4797 6.73403C19.628 6.73982 19.7736 6.7749 19.9083 6.83723C20.043 6.89956 20.164 6.98792 20.2643 7.09721C20.3647 7.20651 20.4425 7.33458 20.4931 7.47405V7.47499Z" fill="black"/>
</svg>
